Story of Brazilian bank-robber Lúcio Flávio, who fascinated some people in Rio de Janeiro during the 1970s for his bold robberies and spectacular escapes, and also because he was thought to be intelligent and "politically aware". Before dying, he disclosed a network of corruption in Brazilian Police, and its involvement with the infamous "Death Squad" of the time, a group of policemen who went about killing criminals without giving them a fair trial.

   General
      Complete name : Lucio Flavio.avi
      Format : AVI
      Format/Info : Audio Video Interleave
      File size : 1.40 GiB
      Duration : 2h 0mn
      Overall bit rate : 1 663 Kbps
      Writing application : FairUse Wizard - http://fairusewizard.com
      Writing library : The best and REALLY easy backup tool
   Video #0
      ID : 0
      Format : MPEG-4 Visual
      Format profile : AdvancedSimple@L5
      Format settings, BVOP : Yes
      Format settings, QPel : No
      Format settings, GMC : No warppoints
      Format settings, Matrix : Default (MPEG)
      Muxing mode : Packed bitstream
      Codec ID : XVID
      Codec ID/Hint : XviD
      Duration : 2h 0mn
      Bit rate : 1 461 Kbps
      Width : 624 pixels
      Height : 464 pixels
      Display aspect ratio : 4:3
      Frame rate : 23.976 fps
      Resolution : 24 bits
      Colorimetry : 4:2:0
      Scan type : Progressive
      Bits/(Pixel*Frame) : 0.211
      Stream size : 1.23 GiB (88%)
      Writing library : XviD 1.2.0.dev47 (UTC 2006-11-01)
   Audio #1
      ID : 1
      Format : AC-3
      Format/Info : Audio Coding 3
      Codec ID : 2000
      Duration : 2h 0mn
      Bit rate mode : Constant
      Bit rate : 192 Kbps
      Channel(s) : 2 channels
      Channel positions : L R
      Sampling rate : 48.0 KHz
      Stream size : 165 MiB (12%)
      Alignment : Split accross interleaves
      Interleave, duration : 42 ms (1.00 video frame)
      Interleave, preload duration : 500 ms

IMDB: tt0077878

Portuguese audio; English, Spanish and Portuguese subpack (idx/sub)

My rip of the recently released Brazilian DVD - Lúcio Flávio, o Passageiro da Agonia